# xmcd
#
# Track frame offsets: 
#        150
#        24703
#        49507
#        76512
#        110223
#        115908
#        145240
#        177998
#        201191
#
# Disc length: 3185 seconds
#
# Revision: 1
# Processed by: cddbd v1.5.2PL0 Copyright (c) Steve Scherf et al.
# Submitted via: ExactAudioCopy v0.99pb4
#
DISCID=760c6f09
DTITLE=Portico Quartet - Isla
DYEAR=2009
DGENRE=Jazz
TTITLE0=Paper Scissors Stone
TTITLE1=The Visitor
TTITLE2=Dawn Patrol
TTITLE3=Line
TTITLE4=Life Mask (Interlude)
TTITLE5=Clipper
TTITLE6=Life Mask
TTITLE7=Isla
TTITLE8=Shed Song (Improv. No 1)
EXTD=YEAR: 2009
EXTT0=
EXTT1=
EXTT2=
EXTT3=
EXTT4=
EXTT5=
EXTT6=
EXTT7=
EXTT8=
PLAYORDER=
